<svg width="30" height="30" viewBox="0 0 30 30" fill="none" xmlns="http://www.w3.org/2000/svg">
<path d="M25.3963 5.4625C23.4963 4.5875 21.4588 3.95 19.3338 3.5875C19.3088 3.5825 19.2838 3.595 19.2713 3.6175C19.0213 4.0675 18.7463 4.6425 18.5588 5.1C16.3088 4.7625 14.0713 4.7625 11.8588 5.1C11.6713 4.6325 11.3863 4.0675 11.1338 3.6175C11.1213 3.5975 11.0963 3.585 11.0713 3.5875C8.94878 3.9475 6.91128 4.585 5.00878 5.4625C4.99628 5.4675 4.98628 5.4775 4.97878 5.49C1.41628 11.3075 0.433777 17.0075 0.998777 22.6425C1.00128 22.67 1.01628 22.6975 1.03878 22.715C3.49878 24.5525 5.88378 25.6525 8.22628 26.3775C8.25128 26.385 8.27878 26.375 8.29628 26.355C8.84628 25.58 9.33878 24.7625 9.76628 23.9025C9.78628 23.8625 9.76878 23.815 9.72628 23.7975C8.93378 23.4875 8.18378 23.1125 7.46378 22.6875C7.41628 22.66 7.41378 22.5925 7.45878 22.565C7.61378 22.4475 7.76878 22.325 7.91628 22.2C7.93628 22.1825 7.96628 22.18 7.98878 22.19C12.9838 24.4925 18.3588 24.4925 23.2963 22.19C23.3188 22.1775 23.3488 22.18 23.3713 22.1975C23.5188 22.3225 23.6738 22.4475 23.8313 22.565C23.8763 22.5925 23.8763 22.66 23.8288 22.6875C23.1088 23.12 22.3588 23.4875 21.5638 23.795C21.5213 23.8125 21.5063 23.8625 21.5238 23.9025C21.9613 24.76 22.4538 25.5775 22.9938 26.3525C23.0113 26.375 23.0413 26.385 23.0663 26.3775C25.4213 25.6525 27.8063 24.5525 30.2663 22.715C30.2888 22.6975 30.3013 22.6725 30.3038 22.645C30.9588 16.1325 29.2338 10.4825 25.4213 5.4925C25.4163 5.4775 25.4063 5.4675 25.3963 5.4625ZM10.5263 19.1625C9.15878 19.1625 8.02878 17.8925 8.02878 16.3475C8.02878 14.8025 9.13378 13.5325 10.5263 13.5325C11.9313 13.5325 13.0488 14.815 13.0238 16.3475C13.0238 17.8925 11.9188 19.1625 10.5263 19.1625ZM19.8188 19.1625C18.4513 19.1625 17.3213 17.8925 17.3213 16.3475C17.3213 14.8025 18.4263 13.5325 19.8188 13.5325C21.2238 13.5325 22.3413 14.815 22.3163 16.3475C22.3163 17.8925 21.2238 19.1625 19.8188 19.1625Z"/>
</svg>
