<svg width="77" height="89" viewBox="0 0 77 89" fill="none" xmlns="http://www.w3.org/2000/svg">
<g clip-path="url(#clip0_discord)">
<path d="M65.2447 16.2188C61.4447 14.3188 57.3697 12.8813 53.0822 11.9688C53.0322 11.9563 52.9822 11.9813 52.9572 12.0313C52.4447 12.9563 51.8822 14.1438 51.4947 15.0688C46.8697 14.3188 42.2697 14.3188 37.7197 15.0688C37.3322 14.1188 36.7447 12.9563 36.2197 12.0313C36.1947 11.9813 36.1447 11.9563 36.0947 11.9688C31.8072 12.8813 27.7322 14.3188 23.9322 16.2188C23.9072 16.2313 23.8822 16.2563 23.8697 16.2813C16.0697 27.9063 13.9197 39.2063 15.0697 50.3813C15.0697 50.4313 15.0947 50.4813 15.1447 50.5063C20.4947 54.5063 25.6697 56.8813 30.7697 58.4063C30.8197 58.4188 30.8697 58.4063 30.8947 58.3688C32.0697 56.8188 33.1197 55.1688 34.0197 53.4188C34.0572 53.3438 34.0197 53.2563 33.9447 53.2313C32.3697 52.6188 30.8697 51.8938 29.4197 51.0688C29.3322 51.0188 29.3197 50.8938 29.3947 50.8313C29.7072 50.5938 30.0197 50.3438 30.3197 50.0938C30.3572 50.0563 30.4072 50.0563 30.4447 50.0688C40.3697 54.5688 51.1197 54.5688 60.9447 50.0688C60.9822 50.0563 61.0322 50.0563 61.0697 50.0938C61.3697 50.3438 61.6822 50.5938 61.9947 50.8313C62.0697 50.8938 62.0572 51.0188 61.9697 51.0688C60.5197 51.9063 59.0197 52.6188 57.4447 53.2313C57.3697 53.2563 57.3322 53.3438 57.3697 53.4188C58.2822 55.1688 59.3322 56.8188 60.4947 58.3688C60.5197 58.4063 60.5697 58.4188 60.6197 58.4063C65.7322 56.8813 70.9072 54.5063 76.2572 50.5063C76.3072 50.4813 76.3322 50.4313 76.3322 50.3813C77.6947 37.3813 74.3697 26.1563 65.3197 16.2813C65.3072 16.2563 65.2697 16.2313 65.2447 16.2188ZM32.0697 43.5688C28.8697 43.5688 26.2197 40.6188 26.2197 37.0063C26.2197 33.3938 28.8072 30.4438 32.0697 30.4438C35.3697 30.4438 37.9572 33.4313 37.9197 37.0063C37.9197 40.6188 35.3322 43.5688 32.0697 43.5688ZM58.3322 43.5688C55.1322 43.5688 52.4822 40.6188 52.4822 37.0063C52.4822 33.3938 55.0697 30.4438 58.3322 30.4438C61.6322 30.4438 64.2197 33.4313 64.1822 37.0063C64.1822 40.6188 61.6322 43.5688 58.3322 43.5688Z" fill="#5865F2"/>
</g>
<defs>
<clipPath id="clip0_discord">
<rect width="77" height="89" fill="white"/>
</clipPath>
</defs>
</svg>
